<svg width="600" height="600" viewBox="0 0 600 600" fill="none" xmlns="http://www.w3.org/2000/svg">
<path opacity="0.15" d="M535.8 144.528L499.8 385.956L99 417.984L64.2 126.072L535.8 144.528Z" fill="#FFB6C7"/>
<g opacity="0.3">
<path opacity="0.3" d="M443.568 136.68H187.872V152.34H443.568V136.68Z" fill="#A2CDDD"/>
</g>
<path d="M343.284 74.6519C342.684 73.1279 340.116 73.596 338.304 73.596C336.192 73.596 333.78 73.44 331.668 73.896C331.368 77.676 332.424 80.088 327.888 81.144C323.964 82.044 321.396 83.856 320.04 88.092C319.692 89.16 319.416 90.2519 319.176 91.3559C318.084 91.3319 317.052 91.3679 316.272 91.4159C312.948 91.7159 310.08 92.328 308.124 95.496C306.012 98.964 305.856 103.8 305.856 107.88C305.856 112.26 305.856 117.84 307.812 121.764C309.816 126.036 314.772 126.288 319.14 126.3C319.296 128.268 318.84 131.736 319.596 133.392L346.776 134.292C346.932 134.292 346.932 134.448 347.076 134.592C354.612 114.06 345.696 80.8439 343.284 74.6519ZM310.98 108.168C311.28 104.244 311.436 99.7079 316.116 99.5639C316.74 99.528 317.424 99.516 318.144 99.528C317.916 104.136 318.144 108.816 318.384 113.304C318.456 115.452 318.576 117.648 318.708 119.856C317.652 119.784 316.596 119.544 315.516 119.04C310.824 117.072 310.68 112.848 310.98 108.168Z" fill="#F78BBC"/>
<path d="M349.92 86.5799C347.652 85.3679 344.028 85.8239 341.616 86.7359C336.636 88.7039 333.468 92.6279 333.012 97.9079C332.556 103.488 333.168 109.224 334.524 114.516C336.036 119.952 338.448 121.764 344.184 121.908C347.808 121.908 351.432 121.152 355.056 120.696L349.92 86.5799Z" fill="#FFCAE5"/>
<path d="M346.608 72.396C346.608 74.4 344.988 76.02 342.984 76.02H331.968C329.964 76.02 328.344 74.4 328.344 72.396C328.344 70.392 329.964 68.772 331.968 68.772H342.984C344.976 68.772 346.608 70.392 346.608 72.396Z" fill="#CC5490"/>
<path d="M387.216 78.5759C386.616 82.7999 385.704 86.7239 385.704 91.1039C389.028 92.1599 397.644 91.6199 397.452 91.6199C397.452 88.1519 396.576 81.0239 394.764 78.5759H387.216Z" fill="#5E90B5"/>
<path d="M382.644 130.824C381.132 122.304 380.568 113.796 380.568 105.096C380.568 101.124 380.76 96.3959 382.464 92.6039C384.54 88.2479 389.088 88.0679 393.444 88.4399C398.556 88.8239 400.44 91.2839 401.772 96.1919C402.912 100.356 403.476 104.52 403.668 108.864C403.86 113.4 404.052 117.756 403.476 122.112C403.092 124.188 403.092 126.276 402.528 128.352C402.336 129.3 401.58 133.08 401.208 132.132L382.644 130.824Z" fill="#86C0D1"/>
<path d="M406.872 100.74C401.388 100.932 395.892 100.548 390.408 100.548C390.408 105.276 390.216 110.76 390.972 115.5C396.276 116.448 403.08 116.256 408 116.256L406.872 100.74Z" fill="#DCF8FF"/>
<path d="M426.408 134.292C426.408 135.612 425.34 136.68 424.02 136.68C422.7 136.68 421.632 135.612 421.632 134.292V74.784C421.632 73.464 422.7 72.396 424.02 72.396C425.34 72.396 426.408 73.464 426.408 74.784V134.292Z" fill="#5E303C"/>
<path d="M190.272 134.292C190.272 135.612 189.204 136.68 187.884 136.68C186.564 136.68 185.496 135.612 185.496 134.292V74.784C185.496 73.464 186.564 72.396 187.884 72.396C189.204 72.396 190.272 73.464 190.272 74.784V134.292Z" fill="#5E303C"/>
<path d="M433.296 129.276H178.668V144.096H433.296V129.276Z" fill="#CC9966"/>
<path d="M374.832 117.228H359.136V129.36H374.832V117.228Z" fill="#FFDC6C"/>
<path d="M377.7 115.248C377.7 117.756 375.672 119.784 373.164 119.784H360.504C357.996 119.784 355.968 117.756 355.968 115.248V112.704C355.968 110.196 357.996 108.168 360.504 108.168H373.164C375.672 108.168 377.7 110.196 377.7 112.704V115.248Z" fill="#D8A43D"/>
<path d="M362.52 105.204H358.896V123.288H362.52V105.204Z" fill="#C1913A"/>
<path d="M368.94 105.204H365.316V123.288H368.94V105.204Z" fill="#C1913A"/>
<path d="M375.36 105.204H371.736V123.288H375.36V105.204Z" fill="#C1913A"/>
<g opacity="0.3">
<path opacity="0.3" d="M327.324 511.776C327.324 522.924 287.376 531.972 238.104 531.972C188.832 531.972 148.884 522.936 148.884 511.776C148.884 500.616 188.832 491.592 238.104 491.592C287.388 491.592 327.324 500.628 327.324 511.776Z" fill="#A2CDDD"/>
</g>
<path d="M252.336 94.1161C251.832 86.0401 243 82.0081 235.932 82.5121C224.832 83.0161 211.968 91.8481 205.908 100.932C198.84 112.536 197.328 126.408 197.328 139.536C197.328 145.848 198.336 152.652 201.36 158.208C204.384 164.016 211.2 165.276 217.26 165.78C228.36 166.788 238.956 165.78 249.804 165.276C255.348 165.024 261.66 163.512 266.46 160.74C272.268 157.212 272.52 150.9 272.772 144.84C273.276 134.244 271.008 123.396 267.468 113.556C265.464 107.748 260.412 93.3601 252.336 94.1161Z" fill="#5E303C"/>
<path d="M251.136 149.184C255.108 140.856 255.672 134.616 255.3 125.148C255.108 120.984 254.736 116.82 253.224 112.848C251.904 109.248 249.624 103.2 245.844 101.688C241.488 105.852 236.388 108.504 230.892 110.388C226.164 112.092 221.052 114.744 215.94 113.796C215.556 117.576 214.992 121.368 214.992 124.956C214.8 133.656 215.94 142.548 220.668 149.928C223.128 153.9 225.78 157.872 230.316 159.576C230.592 159.684 230.88 159.768 231.156 159.852C230.868 165.12 230.4 170.388 229.74 175.656C229.548 178.872 229.176 180.384 225.96 180.768C225.012 180.768 224.064 180.96 223.116 180.96V181.908C224.436 182.472 223.872 189.48 224.064 191.364C224.628 196.656 227.844 202.152 233.52 202.908C239.004 203.664 245.064 199.128 247.332 194.772C249.6 190.608 250.74 184.932 251.112 180.396C248.652 180.012 245.436 180.012 244.116 177.372C242.976 175.104 241.116 163.404 240.48 160.332C241.536 159.972 242.556 159.516 243.552 158.82C246.984 156.756 249.624 152.592 251.136 149.184Z" fill="#CC9966"/>
<path d="M222.828 119.352C222.528 118.764 222.432 118.068 222.564 117.384C222.672 116.7 223.044 116.04 223.56 115.548C224.628 114.564 226.152 114.324 227.364 114.804C226.14 115.284 225.12 115.704 224.376 116.424C223.608 117.12 223.188 118.08 222.828 119.352Z" fill="#3F2215"/>
<path d="M243.384 113.04C244.164 112.812 245.1 112.956 245.844 113.448C246.6 113.928 247.116 114.672 247.488 115.428C248.172 116.976 248.316 118.62 248.052 120.228C247.38 118.74 247.02 117.252 246.396 115.932C246.108 115.272 245.736 114.672 245.268 114.18C244.788 113.688 244.164 113.316 243.384 113.04Z" fill="#3F2215"/>
<path d="M235.944 127.548C235.896 128.508 235.92 129.456 236.208 130.272C236.484 131.1 237.024 131.76 237.696 132.288L237.648 132.252C237.948 132.444 238.152 132.624 238.368 132.756C238.584 132.888 238.788 132.984 238.968 133.02L238.848 133.008L239.712 132.972H240.18L240.444 132.984L240.612 133.008L240.744 133.044C240.756 133.044 240.96 133.128 241.032 133.212L240.96 133.152C241.236 133.344 241.488 133.656 241.608 134.028C241.728 134.4 241.704 134.772 241.632 135.084C241.464 135.708 241.116 136.164 240.756 136.584C240.384 136.98 239.976 137.34 239.532 137.628C239.088 137.916 238.608 138.18 238.104 138.288C238.536 137.988 238.872 137.616 239.22 137.256C239.544 136.872 239.856 136.488 240.108 136.08C240.372 135.684 240.564 135.24 240.624 134.868C240.672 134.472 240.564 134.292 240.288 134.1L240.216 134.04C240.252 134.1 240.42 134.172 240.396 134.16C240.408 134.16 240.42 134.172 240.42 134.172H240.36H240.18L239.76 134.184L239.328 134.208C239.172 134.22 239.052 134.232 238.848 134.232H238.836C238.8 134.232 238.764 134.232 238.728 134.22C237.936 134.04 237.408 133.512 237.024 133.224L236.976 133.188C236.208 132.504 235.608 131.532 235.464 130.488C235.308 129.42 235.536 128.412 235.944 127.548Z" fill="#915E30"/>
<path d="M234.3 147.6C237 147.708 240.708 147.72 241.2 144.84L230.1 145.368C230.76 146.916 232.668 147.492 234.3 147.6Z" fill="white"/>
<path d="M239.112 147.156C237.696 147.672 235.848 147.672 234.3 147.6C233.796 147.564 233.268 147.48 232.764 147.348C231.852 147.804 231.084 148.476 230.52 149.364C231.804 150.408 233.412 151.14 234.804 151.392C237.456 151.86 240.192 150.972 242.028 149.136C241.236 148.236 240.228 147.576 239.112 147.156Z" fill="#E5889E"/>
<path d="M244.14 144.708L241.2 144.84C240.984 146.076 240.168 146.76 239.112 147.156C240.228 147.576 241.248 148.236 242.028 149.136C243.156 147.996 243.948 146.496 244.14 144.708Z" fill="#BF5A77"/>
<path d="M232.764 147.348C231.612 147.036 230.556 146.436 230.1 145.368L228.24 145.452C228.3 146.964 229.248 148.308 230.52 149.352C231.084 148.476 231.852 147.804 232.764 147.348Z" fill="#BF5A77"/>
<path d="M236.208 151.992C235.716 151.992 235.212 151.944 234.732 151.86C233.196 151.584 231.516 150.78 230.232 149.736C229.152 148.86 227.856 147.408 227.784 145.488C227.772 145.224 227.976 144.996 228.24 144.984L244.14 144.228C244.284 144.216 244.416 144.276 244.512 144.372C244.608 144.48 244.656 144.612 244.644 144.756C244.452 146.556 243.672 148.188 242.388 149.472C240.756 151.092 238.5 151.992 236.208 151.992ZM228.78 145.92C228.984 146.988 229.692 148.068 230.832 148.992C231.996 149.952 233.52 150.672 234.9 150.924C237.36 151.356 239.964 150.54 241.692 148.8C242.676 147.804 243.324 146.58 243.588 145.212L241.224 145.32L228.78 145.92Z" fill="#915E30"/>
<path d="M228.444 126.6C228.444 128.124 227.736 129.372 226.86 129.372C225.984 129.372 225.276 128.136 225.276 126.6C225.276 125.076 225.984 123.828 226.86 123.828C227.736 123.828 228.444 125.064 228.444 126.6Z" fill="black"/>
<path d="M244.968 126.36C244.968 127.884 244.26 129.132 243.384 129.132C242.508 129.132 241.8 127.896 241.8 126.36C241.8 124.836 242.508 123.588 243.384 123.588C244.26 123.6 244.968 124.836 244.968 126.36Z" fill="black"/>
<path d="M221.052 509.484C219.372 506.076 217.392 504.504 214.92 503.964C212.568 505.932 210.384 507.996 209.088 510.936C207.804 513.744 207.084 518.58 210.372 519.828C213.372 521.076 217.08 518.58 219.648 517.02C223.212 515.148 233.088 503.496 234.096 501.78C234.096 501.78 233.928 500.544 233.688 498.792C232.32 499.956 230.748 501.072 229.752 502.044C226.92 504.732 224.088 507.216 221.052 509.484Z" fill="#273552"/>
<path d="M231.648 466.932C231.648 463.032 231.504 459.132 231.504 455.232L221.088 455.7L226.8 494.712C224.94 497.832 219.948 499.704 217.236 502.044C216.468 502.692 215.688 503.328 214.932 503.964C217.404 504.504 219.384 506.088 221.064 509.484C224.088 507.204 226.932 504.732 229.764 502.032C230.76 501.06 232.332 499.956 233.7 498.78C233.292 495.696 232.692 491.004 232.512 488.604C232.08 481.44 231.648 474.108 231.648 466.932Z" fill="#CC9966"/>
<path d="M255.876 509.484C257.556 506.076 259.536 504.504 262.008 503.964C264.36 505.932 266.544 507.996 267.84 510.936C269.124 513.744 269.844 518.58 266.556 519.828C263.556 521.076 259.848 518.58 257.28 517.02C253.716 515.148 243.84 503.496 242.832 501.78C242.832 501.78 243 500.544 243.24 498.792C244.608 499.956 246.18 501.072 247.176 502.044C250.008 504.732 252.852 507.216 255.876 509.484Z" fill="#273552"/>
<path d="M245.28 466.932C245.28 463.032 245.424 459.132 245.424 455.232L255.84 455.7L250.128 494.712C251.988 497.832 256.98 499.704 259.692 502.044C260.46 502.692 261.24 503.328 261.996 503.964C259.524 504.504 257.544 506.088 255.864 509.484C252.84 507.204 249.996 504.732 247.164 502.032C246.168 501.06 244.596 499.956 243.228 498.78C243.636 495.696 244.236 491.004 244.416 488.604C244.86 481.44 245.28 474.108 245.28 466.932Z" fill="#CC9966"/>
<path d="M216.516 460.668C216.516 458.604 217.272 457.356 217.272 455.7C217.656 451.56 216.516 450.324 215.376 446.184C213.48 438.732 216.516 427.98 216.888 420.12C217.644 401.916 217.26 384.96 211.212 367.176C205.536 349.392 199.104 330.78 199.86 311.748C200.244 303.48 200.244 292.716 204.78 286.104C210.84 277.008 221.808 273.276 231.648 272.04C248.676 269.556 268.356 272.448 272.52 293.544C276.684 312.156 273.276 329.124 269.112 347.736C264.948 365.52 258.132 382.896 258.132 401.928C258.132 410.616 255.864 419.712 256.992 428.4C257.376 432.54 259.644 436.26 260.016 440.808C260.4 445.776 257.748 449.088 257.364 454.044C257.364 457.356 259.26 460.248 259.26 463.968C253.956 464.796 246.768 463.272 241.464 462.852C239.952 454.584 241.464 448.248 241.464 439.56C241.464 430.464 240.324 421.356 240.324 412.26C240.324 394.056 238.812 331.176 238.812 331.176C237.3 331.176 235.404 331.176 233.892 331.176C233.892 331.176 233.892 378.744 234.276 387.432C234.66 396.12 234.66 404.808 234.66 413.496C234.66 422.184 232.392 431.7 233.52 440.388C234.276 447.42 235.032 454.872 235.032 461.484L216.516 460.668Z" fill="#355087"/>
<path d="M218.916 444.504C219.3 444.756 219.78 444.768 220.224 444.78C220.68 444.792 221.124 444.744 221.604 444.756H221.616C223.332 444.984 225.036 445.176 226.752 445.284C227.172 445.308 227.616 445.332 228.012 445.332C228.432 445.32 228.888 445.308 229.344 445.332C229.8 445.356 230.256 445.404 230.736 445.536C230.976 445.608 231.228 445.692 231.492 445.872C231.756 446.052 232.032 446.436 232.008 446.88V446.892V446.916C231.936 447.312 231.696 447.552 231.504 447.696C231.312 447.852 231.12 447.948 230.94 448.032C230.568 448.2 230.22 448.32 229.848 448.416C229.128 448.608 228.42 448.74 227.7 448.836L227.76 448.824C226.02 449.256 224.268 449.508 222.588 449.928C221.712 450.168 220.836 450.288 220.08 450.564C219.9 450.624 219.72 450.72 219.672 450.756C219.696 450.72 219.648 450.792 219.624 450.84C219.612 450.876 219.588 450.9 219.6 450.9C219.528 450.912 219.852 451.2 220.212 451.32C220.932 451.62 221.844 451.728 222.696 451.908C223.548 452.064 224.412 452.172 225.288 452.256C227.04 452.46 228.828 452.604 230.532 453.084C228.768 452.892 227.016 452.904 225.24 452.88C224.352 452.856 223.464 452.808 222.564 452.712C221.688 452.58 220.812 452.556 219.864 452.256C219.624 452.184 219.396 452.088 219.144 451.92C218.916 451.776 218.604 451.488 218.544 451.044C218.496 450.828 218.568 450.624 218.616 450.456C218.688 450.3 218.736 450.168 218.916 449.976C219.204 449.724 219.432 449.64 219.66 449.544C220.56 449.184 221.448 449.04 222.276 448.8C224.016 448.344 225.768 448.056 227.46 447.672H227.472L227.52 447.66C228.204 447.576 228.876 447.456 229.536 447.288C229.86 447.204 230.172 447.108 230.448 446.988C230.736 446.892 230.94 446.652 230.904 446.736V446.784C230.892 446.772 230.916 446.772 230.832 446.7C230.748 446.628 230.58 446.556 230.412 446.496C230.064 446.388 229.656 446.328 229.248 446.268C228.828 446.22 228.432 446.196 227.976 446.184C227.508 446.148 227.088 446.088 226.656 446.04C224.928 445.824 223.2 445.512 221.52 445.056H221.532C221.1 444.996 220.632 444.984 220.176 444.924C219.756 444.912 219.264 444.828 218.916 444.504Z" fill="#1D3256"/>
<path d="M230.88 455.1C229.908 455.652 228.924 456.132 227.868 456.516C226.824 456.912 225.696 457.152 224.544 457.224C222.24 457.332 219.984 456.72 218.064 455.592C220.296 455.82 222.396 456.144 224.484 456.024C226.56 455.964 228.636 455.304 230.88 455.1Z" fill="#1D3256"/>
<path d="M247.08 441.528L252.144 441.456C253.824 441.48 255.612 441.552 257.232 442.308C255.492 442.5 253.86 442.644 252.144 442.644C250.44 442.62 248.604 442.44 247.08 441.528Z" fill="#1D3256"/>
<path d="M245.316 446.076C246.252 445.944 247.2 446.052 248.124 446.136C249.048 446.232 249.972 446.256 250.908 446.316C251.844 446.364 252.792 446.412 253.74 446.568C254.22 446.652 254.7 446.76 255.168 446.916C255.408 447 255.648 447.072 255.936 447.288C256.068 447.384 256.272 447.588 256.32 447.912C256.356 448.236 256.224 448.44 256.14 448.596C254.664 450.3 252.792 450.828 251.1 451.572C249.324 452.22 247.524 452.772 245.724 453.372L245.676 453.384C245.124 453.468 244.596 453.552 244.236 453.732C244.152 453.768 244.092 453.828 244.08 453.828C244.08 453.84 244.08 453.768 244.092 453.768C244.068 453.756 244.2 453.936 244.404 454.044C245.232 454.548 246.336 454.848 247.38 455.124C248.448 455.376 249.54 455.688 250.596 455.964C251.664 456.24 252.744 456.456 253.848 456.648C252.732 456.66 251.628 456.552 250.512 456.408C249.384 456.276 248.328 456.036 247.224 455.856C246.12 455.64 245.028 455.46 243.9 454.896C243.636 454.74 243.276 454.56 243.096 454.02C242.988 453.768 243.084 453.384 243.252 453.192C243.408 452.976 243.588 452.868 243.744 452.784C244.368 452.46 244.956 452.376 245.496 452.268L245.448 452.28L250.68 450.48C251.556 450.12 252.42 449.808 253.224 449.412C253.62 449.22 254.016 449.004 254.376 448.764C254.724 448.536 255.12 448.236 255.3 448.008C255.336 447.96 255.312 447.948 255.324 448.032C255.336 448.116 255.384 448.128 255.336 448.08C255.252 448.008 255.06 447.912 254.868 447.828C254.472 447.66 254.04 447.528 253.608 447.42C252.732 447.204 251.82 447.084 250.896 446.976C248.976 446.832 247.176 446.172 245.316 446.076Z" fill="#1D3256"/>
<path d="M212.988 329.412C214.896 329.184 216.828 329.352 218.724 329.484C219.672 329.568 220.632 329.676 221.568 329.724L224.424 329.784C228.228 329.844 232.044 330.084 235.836 330.156C239.628 330.228 243.432 330.072 247.236 329.94L252.96 329.748C253.908 329.76 254.868 329.688 255.84 329.736C256.788 329.76 257.748 329.868 258.66 329.532C257.808 330 256.788 330.012 255.852 330.06C254.904 330.096 253.968 330.252 253.008 330.336L247.308 330.864C243.504 331.2 239.676 331.404 235.836 331.356C231.996 331.248 228.192 330.972 224.376 330.696C220.512 330.624 216.792 329.484 212.988 329.412Z" fill="#1D3256"/>
<path d="M216.636 332.58C217.668 333.24 218.784 333.708 219.948 333.888C221.112 334.104 222.3 334.104 223.5 334.092C224.7 334.068 225.936 334.044 227.184 334.128C228.432 334.236 229.728 334.488 230.904 335.088L230.928 335.1C231.216 335.244 231.324 335.592 231.18 335.88C231.168 335.904 231.144 335.94 231.132 335.964C230.28 337.092 229.032 337.524 227.904 337.812C226.764 338.088 225.612 338.208 224.532 338.364C223.392 338.604 222.252 338.616 221.16 338.796C220.092 338.964 218.904 339.192 218.28 340.176C218.448 339.624 218.916 339.192 219.42 338.904C219.924 338.616 220.476 338.412 221.04 338.244C222.156 337.92 223.284 337.788 224.34 337.476C225.48 337.188 226.584 337.044 227.616 336.732C228.636 336.432 229.656 336.012 230.16 335.28L230.376 336.156C228.36 335.136 225.924 335.184 223.488 335.04C222.264 334.968 221.016 334.836 219.816 334.476C218.616 334.08 217.488 333.468 216.636 332.58Z" fill="#1D3256"/>
<path d="M257.004 332.028C256.092 332.712 254.952 333.048 253.86 333.324C252.744 333.588 251.628 333.78 250.548 334.032C249.492 334.308 248.424 334.764 247.368 335.124L244.188 336.252L244.056 335.244L247.968 335.652L249.924 335.868C250.536 335.928 251.196 335.976 251.844 336.024C253.14 336.108 254.46 336.216 255.78 336.408C256.44 336.504 257.1 336.636 257.76 336.804C258.096 336.9 258.42 336.984 258.78 337.152C258.948 337.212 259.152 337.356 259.332 337.488C259.44 337.608 259.536 337.704 259.608 337.848C259.68 338.028 259.74 338.232 259.68 338.424C259.608 338.82 259.392 338.976 259.236 339.132C259.068 339.288 258.912 339.384 258.744 339.48C258.42 339.672 258.096 339.792 257.772 339.924C257.136 340.152 256.452 340.356 255.792 340.428C254.472 340.608 253.164 340.716 251.856 340.764C249.228 340.884 246.588 340.68 244.032 340.164C246.636 340.368 249.24 340.284 251.808 340.044C253.092 339.912 254.376 339.732 255.636 339.48C256.26 339.372 256.824 339.168 257.412 338.94C257.688 338.82 257.976 338.7 258.216 338.544C258.444 338.424 258.66 338.16 258.6 338.232C258.612 338.256 258.576 338.304 258.612 338.328C258.612 338.34 258.588 338.328 258.588 338.316C258.504 338.268 258.444 338.208 258.3 338.16C258.072 338.052 257.76 337.98 257.472 337.896C256.86 337.74 256.248 337.632 255.612 337.536C254.352 337.356 253.068 337.284 251.76 337.176C249.096 336.984 246.588 336.564 243.996 336.24L243.948 336.228C243.672 336.192 243.468 335.94 243.504 335.652C243.528 335.448 243.684 335.28 243.864 335.22L247.128 334.248C248.232 333.948 249.276 333.564 250.428 333.336C251.568 333.12 252.696 333.072 253.8 332.916C254.892 332.784 256.008 332.58 257.004 332.028Z" fill="#1D3256"/>
<path d="M230.892 295.068C231.108 301.02 231.792 306.936 232.044 312.912C232.332 318.876 232.164 324.84 232.476 330.756L231.948 330.216C235.176 330.456 238.44 330.324 241.716 330.216L241.176 330.72C241.512 327.876 241.056 324.9 240.888 321.912C240.78 318.924 240.504 315.984 240.372 312.984C240.24 309.984 240.36 306.996 240.384 304.02V301.788C240.396 301.032 240.444 300.288 240.504 299.544C240.612 298.056 240.792 296.568 240.6 295.092C240.9 296.556 240.828 298.08 240.792 299.556C240.768 300.3 240.756 301.044 240.792 301.776L240.912 304.008C241.044 306.996 240.972 309.984 241.212 312.924C241.452 315.876 241.812 318.864 241.932 321.84C242.124 324.78 242.64 327.756 242.304 330.864C242.28 331.14 242.052 331.344 241.776 331.368H241.752C238.476 331.536 235.164 331.668 231.84 331.368H231.828C231.54 331.344 231.324 331.104 231.312 330.828C231.096 324.852 231.228 318.888 231.192 312.948C231.132 306.996 230.688 301.032 230.892 295.068Z" fill="#1D3256"/>
<path d="M214.752 293.7C215.22 296.856 214.068 300.156 212.112 302.7C211.104 303.972 209.88 305.088 208.44 305.844C207.012 306.624 205.356 306.996 203.784 306.804C205.344 306.528 206.724 305.88 207.96 305.04C209.184 304.188 210.264 303.144 211.176 301.956C212.1 300.792 212.856 299.484 213.48 298.104C214.056 296.712 214.512 295.248 214.752 293.7Z" fill="#1D3256"/>
<path d="M261.3 293.976C262.56 296.772 263.784 299.532 265.824 301.584C266.82 302.616 268.032 303.42 269.364 304.008C270.708 304.584 272.16 304.98 273.66 305.28C272.136 305.448 270.552 305.364 269.04 304.884C267.516 304.44 266.1 303.564 264.972 302.424C262.716 300.096 261.648 297 261.3 293.976Z" fill="#1D3256"/>
<path d="M269.34 193.44C284.34 213.636 296.76 237.012 314.928 254.904C322.716 262.692 330.804 270.492 342.636 270.204C347.544 269.916 352.452 270.276 357.06 272.292C361.968 274.308 366.66 276.84 368.1 281.748C361.176 281.748 351.288 281.748 344.364 282.324C340.896 282.612 337.728 282.9 334.26 282.9C330.804 283.188 328.488 283.476 326.76 280.596C326.184 279.444 326.184 278.004 325.32 276.552C324.456 275.112 322.728 274.536 321.276 273.384C318.396 271.08 315.504 268.764 312.624 266.46C307.14 261.264 301.656 256.356 296.748 250.872C292.992 246.54 289.536 241.932 286.356 237.312C282.888 232.98 270.48 215.664 267.888 211.056C266.16 208.176 261.252 200.376 261.252 200.376L269.34 193.44Z" fill="#CC9966"/>
<path d="M336 273.66C340.62 274.524 346.968 274.236 351 275.676C353.016 276.54 355.332 278.268 353.88 280.584C352.728 282.312 348.684 281.736 346.668 281.736C342.912 281.736 337.716 282.024 334.26 280.584" fill="#CC9966"/>
<path d="M336 273.66C337.74 273.876 339.468 273.972 341.22 274.032C342.96 274.116 344.712 274.188 346.464 274.356C348.216 274.536 349.968 274.764 351.684 275.52C352.5 275.916 353.292 276.408 353.952 277.128C354.612 277.812 355.044 278.964 354.708 279.984C354.54 280.476 354.336 280.908 353.904 281.304C353.496 281.664 353.028 281.856 352.572 281.988C351.648 282.252 350.736 282.276 349.848 282.276C348.96 282.276 348.072 282.204 347.22 282.168L344.616 282.132C341.16 282.06 337.5 282.048 334.272 280.596C335.928 281.148 337.668 281.352 339.396 281.412C341.124 281.496 342.864 281.46 344.604 281.388C345.48 281.364 346.344 281.316 347.244 281.34C348.132 281.364 348.984 281.412 349.848 281.4C351.48 281.364 353.484 281.208 353.796 279.696C354.024 279.024 353.796 278.304 353.268 277.728C352.752 277.14 352.044 276.672 351.3 276.3C349.836 275.604 348.06 275.364 346.368 275.088C342.936 274.584 339.408 274.464 336 273.66Z" fill="#915E30"/>
<path d="M198.096 288.636C201.624 292.668 211.968 294.192 217.272 295.452C223.584 296.964 230.388 297.216 236.952 297.72C250.32 298.476 265.464 296.208 277.824 291.66C278.328 286.116 275.052 279.3 273.54 273.996C271.776 268.188 269.76 262.14 266.472 257.088C263.448 252.048 260.928 246.492 258.9 241.188C257.388 236.652 255.12 230.088 256.632 225.54C257.388 222.264 259.908 219.228 260.916 215.952C261.672 212.424 260.916 208.632 260.16 205.104C264.444 204.852 275.544 196.272 275.544 196.272C272.844 190.488 267.72 185.424 264.696 183.408C261.42 180.888 253.848 176.916 249.996 177.924C249.996 177.924 237.444 198.804 236.184 200.064C234.672 196.032 222.816 178.872 222.816 178.872C212.472 178.872 202.884 185.94 198.096 195.024C201.624 201.84 206.676 205.116 213.48 206.628C211.464 212.688 211.212 216.972 214.992 222.528C218.772 228.072 219.528 232.116 218.268 238.932C215.748 252.048 207.168 260.376 202.368 272.736C200.604 277.788 199.596 283.08 198.336 288.132L198.096 288.636Z" fill="#FFDC6C"/>
<path d="M219.204 272.364C222.768 272.832 226.332 273.276 229.896 273.624C233.46 273.948 237.036 274.248 240.6 274.416C244.176 274.608 247.752 274.668 251.328 274.668C253.116 274.668 254.904 274.62 256.704 274.536L259.392 274.416C260.292 274.356 261.18 274.284 262.08 274.248C260.316 274.62 258.528 274.872 256.752 275.124C254.964 275.316 253.164 275.472 251.364 275.592C247.764 275.808 244.152 275.784 240.54 275.616C236.94 275.412 233.34 275.088 229.776 274.536C226.224 273.996 222.684 273.312 219.204 272.364Z" fill="#D8A43D"/>
<path d="M263.028 277.596C260.952 278.508 258.696 278.904 256.452 279.18C254.208 279.42 251.964 279.684 249.708 279.84C245.184 280.104 240.66 279.9 236.16 279.96C231.672 280.032 227.172 280.356 222.66 280.572L219.264 280.716L215.88 280.74C214.764 280.764 213.66 280.836 212.592 281.016C211.524 281.184 210.492 281.508 209.712 282.084L209.82 281.256C210.084 281.568 210.6 281.832 211.14 282.012C211.692 282.192 212.28 282.3 212.88 282.408C214.08 282.6 215.316 282.696 216.564 282.78C219.084 282.948 221.58 283.2 224.076 283.428C226.572 283.656 229.068 283.872 231.564 283.992C234.06 284.076 236.568 284.016 239.076 284.076L246.588 284.16C249.096 284.184 251.604 284.268 254.1 284.1C259.104 283.884 264.084 283.224 269.052 282.54C264.132 283.5 259.164 284.304 254.136 284.712C251.628 284.94 249.108 284.904 246.6 284.94L239.064 285.024C236.544 285.048 234.036 285.096 231.516 285.036C228.996 284.928 226.488 284.736 223.98 284.532C221.484 284.328 218.976 284.1 216.492 283.944C215.232 283.872 213.96 283.788 212.688 283.596C212.052 283.488 211.404 283.356 210.768 283.14C210.132 282.912 209.448 282.636 208.896 281.976L208.5 281.508L208.992 281.148C210.048 280.38 211.248 280.068 212.4 279.876C213.564 279.684 214.716 279.624 215.856 279.612H219.24L222.6 279.492C227.1 279.3 231.612 279.012 236.148 279.06C240.672 279.108 245.172 279.396 249.672 279.264C251.916 279.192 254.172 279.012 256.416 278.868C258.66 278.688 260.916 278.4 263.028 277.596Z" fill="#D8A43D"/>
<path d="M149.916 325.344C137.052 325.728 143.856 351.84 148.776 356.748C156.72 364.692 166.944 355.992 169.212 347.664C169.968 343.5 169.968 338.208 168.456 334.044C166.188 327.984 162.024 329.508 157.476 326.1C157.476 326.1 157.476 326.1 157.476 325.716L149.916 325.344Z" fill="#996699"/>
<path d="M157.476 293.172C153.312 293.556 149.532 291.66 145.74 294.684C141.204 298.848 141.96 307.176 142.332 312.852C142.716 320.424 141.192 328.368 145.356 334.8C149.52 341.232 161.628 343.128 168.816 342.744C174.492 342.36 180.924 338.964 185.472 335.556C191.148 331.392 192.288 326.1 193.044 319.284C194.556 307.176 191.904 296.196 179.04 292.032L157.476 293.172Z" fill="#F78BBC"/>
<path d="M177.156 296.208C181.32 292.428 189.264 290.532 194.568 290.532C202.896 290.532 206.676 295.068 207.816 303.024C208.572 311.352 206.304 320.052 205.548 327.996C204.792 336.324 204.792 344.268 203.28 352.212C202.524 355.992 202.14 357.132 198.36 357.888C194.952 358.272 191.544 357.888 188.52 357.888C182.088 357.888 175.272 360.156 169.224 358.644C157.872 355.992 161.652 334.428 161.652 325.716L177.156 296.208Z" fill="#86C0D1"/>
<path d="M148.752 280.944C149.628 274.776 154.92 267.432 159.324 263.316C167.256 256.272 175.476 256.272 183.408 262.728C189.576 267.72 196.332 276.24 198.384 284.172C198.972 286.524 199.56 285.936 197.796 287.4C196.332 288.576 192.216 288.864 190.452 289.164C184.872 289.752 179.292 289.752 174 290.04C170.472 290.04 166.656 290.328 163.128 290.04C161.364 289.74 159.6 288.864 158.136 289.452L148.752 280.944Z" fill="#996699"/>
<path d="M172.548 290.628C175.488 280.644 184.884 267.132 195.168 263.904C210.144 259.2 214.848 279.18 216.612 289.752C216.612 289.464 216.612 289.164 216.612 288.876L172.548 290.628Z" fill="#86C0D1"/>
<path d="M183.408 289.752C182.532 284.46 179.592 277.704 174.3 275.064C171.66 274.188 168.72 274.188 166.08 275.064C161.676 275.94 162.264 277.704 159.324 274.188C153.744 267.432 145.224 264.204 139.356 272.724C137.304 275.952 137.004 280.068 137.304 283.884C137.304 285.06 137.592 290.928 138.48 290.052L183.408 289.752Z" fill="#F78BBC"/>
<path d="M209.112 292.92H141.492C138.984 292.92 137.124 295.224 137.328 298.044L141.66 356.94C141.828 359.172 143.736 360.96 145.944 360.96H204C206.208 360.96 208.104 359.172 208.236 356.94L213.324 298.044C213.504 295.224 211.62 292.92 209.112 292.92ZM151.452 355.2C151.5 356.016 150.828 356.688 149.976 356.688C149.112 356.688 148.38 356.028 148.32 355.2L147.084 334.62C147.036 333.72 147.72 333 148.62 333C149.52 333 150.3 333.732 150.348 334.62L151.452 355.2ZM149.928 326.796C149.976 327.72 149.28 328.452 148.368 328.452C147.456 328.452 146.676 327.708 146.616 326.796L145.236 303.744C145.176 302.736 145.908 301.92 146.856 301.92C147.816 301.92 148.632 302.736 148.692 303.744L149.928 326.796ZM159.876 355.2C159.9 356.016 159.228 356.688 158.364 356.688C157.5 356.688 156.768 356.028 156.744 355.2L155.856 334.62C155.82 333.72 156.516 333 157.428 333C158.328 333 159.096 333.732 159.12 334.62L159.876 355.2ZM158.844 326.796C158.88 327.72 158.16 328.452 157.26 328.452C156.348 328.452 155.58 327.708 155.544 326.796L154.56 303.744C154.512 302.736 155.256 301.92 156.216 301.92C157.176 301.92 157.98 302.736 158.016 303.744L158.844 326.796ZM168.312 355.2C168.324 356.016 167.64 356.688 166.776 356.688C165.912 356.688 165.192 356.028 165.18 355.2L164.64 334.62C164.616 333.72 165.336 333 166.236 333C167.136 333 167.892 333.732 167.904 334.62L168.312 355.2ZM167.748 326.796C167.772 327.72 167.04 328.452 166.128 328.452C165.216 328.452 164.46 327.708 164.436 326.796L163.836 303.744C163.812 302.736 164.568 301.92 165.528 301.92C166.488 301.92 167.28 302.736 167.304 303.744L167.748 326.796ZM176.736 355.2C176.736 356.016 176.04 356.688 175.176 356.688C174.312 356.688 173.604 356.028 173.604 355.2L173.424 334.62C173.412 333.72 174.144 333 175.044 333C175.944 333 176.676 333.732 176.688 334.62L176.736 355.2ZM176.664 326.796C176.664 327.72 175.932 328.452 175.02 328.452C174.108 328.452 173.364 327.708 173.352 326.796L173.148 303.744C173.136 302.736 173.904 301.92 174.864 301.92C175.824 301.92 176.604 302.736 176.604 303.744L176.664 326.796ZM185.172 355.2C185.16 356.016 184.452 356.688 183.588 356.688C182.724 356.688 182.028 356.028 182.04 355.2L182.208 334.62C182.22 333.72 182.952 333 183.852 333C184.752 333 185.472 333.732 185.46 334.62L185.172 355.2ZM185.568 326.796C185.556 327.72 184.8 328.452 183.888 328.452C182.976 328.452 182.244 327.708 182.256 326.796L182.436 303.744C182.448 302.736 183.228 301.92 184.188 301.92C185.148 301.92 185.904 302.736 185.892 303.744L185.568 326.796ZM193.596 355.2C193.572 356.016 192.852 356.688 191.988 356.688C191.124 356.688 190.44 356.028 190.464 355.2L190.98 334.62C191.004 333.72 191.748 333 192.66 333C193.56 333 194.268 333.732 194.244 334.62L193.596 355.2ZM194.484 326.796C194.46 327.72 193.692 328.452 192.78 328.452C191.868 328.452 191.148 327.708 191.172 326.796L191.748 303.744C191.772 302.736 192.564 301.92 193.524 301.92C194.484 301.92 195.228 302.736 195.204 303.744L194.484 326.796ZM202.032 355.2C201.996 356.016 201.264 356.688 200.4 356.688C199.536 356.688 198.864 356.028 198.9 355.2L199.764 334.62C199.8 333.72 200.568 333 201.468 333C202.368 333 203.064 333.732 203.028 334.62L202.032 355.2ZM203.4 326.796C203.352 327.72 202.584 328.452 201.672 328.452C200.76 328.452 200.052 327.708 200.088 326.796L201.048 303.744C201.096 302.736 201.9 301.92 202.86 301.92C203.82 301.92 204.552 302.736 204.504 303.744L203.4 326.796Z" fill="#AF4343"/>
<path d="M219.552 293.388C219.552 295.896 217.524 297.924 215.016 297.924H135.648C133.14 297.924 131.112 295.896 131.112 293.388V289.392C131.112 286.884 133.14 284.856 135.648 284.856H215.016C217.524 284.856 219.552 286.884 219.552 289.392V293.388Z" fill="#D36262"/>
<path d="M168.576 284.856C163.524 291.42 160.5 300.24 158.484 308.316C158.232 310.08 154.704 324.972 157.476 324.216C160.5 323.46 161.868 309 161.868 309C161.868 309 160.524 318.324 160.524 319.836C160.524 321.348 160.176 331.056 164.616 326.808C165.372 329.076 166.56 331.032 167.82 328.752C168.576 327.492 168.324 323.448 168.324 322.188C168.576 317.652 169.332 313.608 169.836 309.324C170.34 309.072 170.592 309.072 171.096 309.072C171.6 314.616 170.088 320.676 171.096 326.232C171.852 329.76 173.868 329.256 174.624 325.728C175.128 323.208 174.876 320.424 175.128 317.652C175.38 314.124 175.128 301.752 180.936 306.552C183.204 308.568 184.212 311.1 187.752 311.1C190.272 311.1 193.56 309.336 190.776 307.32C190.02 306.816 188.256 307.32 186.996 306.564C185.988 305.808 185.484 303.792 184.728 302.532C183.216 300.516 180.192 299.004 178.416 296.472C175.896 292.944 174.636 287.388 173.124 283.356L168.576 284.856Z" fill="#CC9966"/>
<path d="M166.656 329.76C162.276 328.968 165.804 309.828 166.812 306.804L166.656 329.76Z" fill="#CC9966"/>
<path d="M166.656 329.76C166.14 329.724 165.684 329.376 165.396 328.956C165.072 328.536 164.88 328.056 164.712 327.564C164.412 326.58 164.28 325.572 164.184 324.564C164.016 322.548 164.124 320.532 164.292 318.528C164.496 316.536 164.784 314.544 165.192 312.588C165.612 310.632 166.056 308.664 166.812 306.804C166.62 307.788 166.464 308.772 166.332 309.756C166.176 310.74 166.044 311.724 165.924 312.708C165.684 314.676 165.42 316.644 165.252 318.624C165.048 320.592 164.928 322.572 164.916 324.54C164.916 325.524 164.976 326.508 165.168 327.456C165.336 328.368 165.672 329.412 166.656 329.76Z" fill="#915E30"/>
<path d="M162.54 327.864C161.724 327.48 161.268 326.544 161.136 325.716C160.692 323.82 160.632 321.864 160.632 319.98C160.632 316.128 161.388 311.904 162.648 308.244C162.78 307.86 163.032 307.428 163.032 306.984" fill="#CC9966"/>
<path d="M162.54 327.864C161.664 327.564 161.124 326.652 160.908 325.752V325.764C160.476 324.204 160.248 322.596 160.2 320.988C160.128 319.392 160.176 317.76 160.38 316.176C160.572 314.58 160.896 312.996 161.352 311.46C161.58 310.692 161.82 309.924 162.108 309.18C162.252 308.808 162.408 308.448 162.576 308.076C162.744 307.704 162.96 307.38 163.02 306.984C162.756 308.568 162.276 310.068 162.012 311.628C161.724 313.176 161.484 314.736 161.316 316.284C161.16 317.844 161.076 319.404 161.076 320.976C161.076 322.548 161.076 324.12 161.364 325.656V325.668C161.424 326.508 161.784 327.384 162.54 327.864Z" fill="#915E30"/>
<path d="M201.924 200.46C199.68 206.172 196.644 211.812 194.064 216.984C188.508 228.588 179.94 237.924 175.896 250.032C173.124 258.36 170.592 266.436 168.828 274.752C167.568 279.792 165.66 291.78 166.812 296.352C169.128 305.58 175.14 285.36 176.4 281.82C178.668 276.012 182.004 268.008 184.524 262.2C188.808 250.596 192.288 244.476 198.096 233.616C202.752 224.724 207.252 215.028 212.88 206.46C208.5 205.416 204.876 203.568 201.924 200.46Z" fill="#CC9966"/>
<g opacity="0.3">
<path opacity="0.3" d="M291.696 472.584H443.58L463.248 490.32H277.872L291.696 472.584Z" fill="#A2CDDD"/>
</g>
<path d="M445.14 215.616H425.28V247.656H445.14V215.616Z" fill="#EDD8A4"/>
<path d="M426.408 232.692C426.408 228.816 425.28 224.748 433.428 225.672C437.28 226.104 440.448 228.816 440.448 232.692C440.448 236.568 437.304 239.484 433.428 239.712C424.032 240.252 426.408 236.568 426.408 232.692Z" fill="black"/>
<path d="M423.384 232.692C423.384 228.816 426.528 225.672 430.404 225.672C434.28 225.672 437.424 228.816 437.424 232.692C437.424 236.568 434.28 239.712 430.404 239.712C426.528 239.712 423.384 236.568 423.384 232.692Z" fill="#486470"/>
<path d="M417.96 284.724C420.78 272.94 417.192 261.96 414.78 250.488C413.868 246.18 413.916 241.536 416.652 237.852C419.532 233.988 424.392 232.848 428.988 232.968C429.756 232.992 428.832 232.452 428.472 232.44C419.964 232.224 412.752 237.036 413.052 246.192C413.244 252 415.488 257.808 416.64 263.484C418.068 270.516 418.476 277.452 416.796 284.484C416.712 284.808 417.876 285.06 417.96 284.724Z" fill="black"/>
<path d="M437.016 458.928H298.26V480.936H437.016V458.928Z" fill="#9DB6C6"/>
<path d="M443.568 319.536H291.696V458.928H443.568V319.536Z" fill="#C5DAEA"/>
<path d="M443.568 279.252H291.696V319.536H443.568V279.252Z" fill="#9DB6C6"/>
<path d="M433.512 310.332C433.512 312.84 431.484 314.868 428.976 314.868H406.704C404.196 314.868 402.168 312.84 402.168 310.332V291.66C402.168 289.152 404.196 287.124 406.704 287.124H428.976C431.484 287.124 433.512 289.152 433.512 291.66V310.332Z" fill="#C5DAEA"/>
<path d="M410.268 300.996C410.268 296.532 413.88 292.92 418.344 292.92C422.808 292.92 426.42 296.532 426.42 300.996C426.42 305.46 422.808 309.072 418.344 309.072C413.88 309.072 410.268 305.46 410.268 300.996Z" fill="white"/>
<path d="M423.84 291.504C420.336 297.48 416.808 303.504 412.812 309.168C412.608 309.456 413.736 309.768 413.928 309.48C417.924 303.816 421.452 297.792 424.956 291.816C425.148 291.492 424.008 291.216 423.84 291.504Z" fill="#9DB6C6"/>
<path d="M397.176 310.332C397.176 312.84 395.148 314.868 392.628 314.868H305.268C302.76 314.868 300.732 312.84 300.732 310.332V291.66C300.732 289.152 302.76 287.124 305.268 287.124H392.628C395.136 287.124 397.176 289.152 397.176 291.66V310.332Z" fill="#C5DAEA"/>
<path d="M316.176 291.408H308.856V299.652H316.176V291.408Z" fill="#9DB6C6"/>
<path d="M329.544 291.408H322.224V299.652H329.544V291.408Z" fill="#9DB6C6"/>
<path d="M342.912 291.408H335.592V299.652H342.912V291.408Z" fill="#9DB6C6"/>
<path d="M356.28 291.408H348.96V299.652H356.28V291.408Z" fill="#9DB6C6"/>
<path d="M356.28 303.9H308.856V310.5H356.28V303.9Z" fill="white"/>
<path d="M390.612 305.496H364.848V310.5H390.612V305.496Z" fill="#A4D36C"/>
<path d="M390.612 291.408H364.848V296.412H390.612V291.408Z" fill="#BF5656"/>
<path d="M390.612 300.96H364.848V305.496H390.612V300.96Z" fill="#FFE876"/>
<path d="M390.612 296.412H364.848V300.948H390.612V296.412Z" fill="#E89B46"/>
<path d="M317.832 389.232C317.832 361.464 340.332 338.964 368.1 338.964C395.856 338.964 418.368 361.464 418.368 389.232C418.368 416.988 395.856 439.5 368.1 439.5C340.344 439.5 317.832 417 317.832 389.232Z" fill="white"/>
<path d="M360.696 385.704C361.644 383.244 362.016 381.348 360.504 378.888C359.184 376.62 357.288 375.288 357.66 372.456C358.224 368.292 362.196 364.884 365.04 362.244C365.82 361.524 366.636 360.852 367.452 360.192C351.684 360.528 339.012 373.392 339.012 389.232C339.012 394.824 340.62 400.032 343.356 404.46C346.284 402.636 348.96 400.068 351.228 397.8C355.02 394.404 358.992 390.624 360.696 385.704Z" fill="#586972"/>
<path d="M386.964 367.128C384.6 369.252 382.224 371.4 380.196 373.968C378.492 376.428 376.224 378.888 376.416 382.104C376.608 385.128 379.26 386.268 380.388 388.92C381.144 390.816 380.58 392.892 380.196 394.596C379.056 399.516 376.032 403.872 372.816 407.652C369.744 411.276 365.352 414.192 361.728 417.588C363.78 418.044 365.916 418.308 368.112 418.308C384.168 418.308 397.188 405.288 397.188 389.232C397.176 380.376 393.204 372.456 386.964 367.128Z" fill="#586972"/>
<path d="M372.804 407.652C376.02 403.872 379.044 399.516 380.184 394.596C380.568 392.892 381.132 390.816 380.376 388.92C379.236 386.268 376.596 385.14 376.404 382.104C376.212 378.888 378.48 376.428 380.184 373.968C382.224 371.4 384.588 369.252 386.952 367.128C381.876 362.796 375.3 360.156 368.1 360.156C367.884 360.156 367.68 360.18 367.464 360.192C366.636 360.84 365.832 361.512 365.052 362.244C362.208 364.896 358.236 368.304 357.672 372.456C357.288 375.3 359.184 376.62 360.516 378.888C362.028 381.348 361.656 383.244 360.708 385.704C359.004 390.624 355.032 394.404 351.252 397.812C348.996 400.068 346.308 402.648 343.38 404.472C347.424 411.024 353.988 415.86 361.728 417.588C365.34 414.18 369.744 411.276 372.804 407.652Z" fill="#6D8C99"/>
<path d="M414.708 413.82C412.932 415.644 410.472 416.616 406.86 416.172C403.08 415.788 398.532 415.032 395.508 413.148C390.204 410.496 390.204 408.984 390.972 404.064C391.728 399.9 392.112 395.736 392.112 391.572C392.112 387.408 391.356 384.384 390.972 380.592C390.588 371.892 401.184 368.856 408 368.856C421.248 368.856 420.492 378.696 420.492 389.292C420.492 394.74 420.096 400.236 418.656 405.504C417.756 408.792 416.652 411.816 414.708 413.82Z" fill="#9DB6C6"/>
</svg>
