<svg width="50" height="50" viewBox="0 0 50 50" fill="none" xmlns="http://www.w3.org/2000/svg">
<path d="M16.4062 2.34375H47.6563V44.5312H16.4062V2.34375Z" fill="#348FD9"/>
<path d="M47.6563 15.625V44.4102H16.4062V40.165C28.4902 37.1504 40.5986 27.5889 47.6563 15.625Z" fill="#3086CD"/>
<path d="M19.5312 5.46875H25.7812V8.59375H19.5312V5.46875Z" fill="#4DB7E5"/>
<path d="M42.9688 8.59375C43.8317 8.59375 44.5312 7.8942 44.5312 7.03125C44.5312 6.16831 43.8317 5.46875 42.9688 5.46875C42.1058 5.46875 41.4062 6.16831 41.4062 7.03125C41.4062 7.8942 42.1058 8.59375 42.9688 8.59375Z" fill="#7EB457"/>
<path d="M44.5313 27.3438C44.5315 30.3189 43.4706 33.1966 41.5394 35.4596C39.6081 37.7227 36.933 39.2228 33.9949 39.6904C31.0567 40.1579 28.0481 39.5623 25.5098 38.0105C22.9714 36.4586 21.0698 34.0524 20.1465 31.2242C19.2232 28.3959 19.3389 25.3311 20.4727 22.5805C21.6066 19.8299 23.6842 17.5739 26.3323 16.2178C28.9804 14.8618 32.0254 14.4946 34.9199 15.1823C37.8145 15.87 40.3688 17.5675 42.124 19.9697C43.6922 22.1082 44.5356 24.692 44.5313 27.3438Z" fill="#D6D6D4"/>
<path d="M32.0313 36.7188C37.2089 36.7188 41.4063 32.5214 41.4063 27.3438C41.4063 22.1661 37.2089 17.9688 32.0313 17.9688C26.8536 17.9688 22.6562 22.1661 22.6562 27.3438C22.6562 32.5214 26.8536 36.7188 32.0313 36.7188Z" fill="#4D5E78"/>
<path d="M28.2059 23.4355L27.1131 22.3189C27.564 21.8773 28.0722 21.4983 28.624 21.192L29.382 22.5587C28.9525 22.7971 28.557 23.0919 28.2059 23.4355Z" fill="#556A8A"/>
<path d="M26.5429 31.7383C25.6609 30.6363 25.1309 29.2946 25.0215 27.8874C24.9122 26.4802 25.2286 25.0726 25.9297 23.8477L27.2849 24.6255C26.8111 25.4531 26.562 26.3902 26.5624 27.3438C26.5574 28.587 26.9808 29.7941 27.7615 30.7617L26.5429 31.7383Z" fill="#556A8A"/>
<path d="M44.5312 27.3437C44.5348 29.5689 43.9413 31.7543 42.8125 33.6719L37.5 29.6875V23.4375L42.124 19.9697C43.6919 22.1083 44.5354 24.692 44.5312 27.3437Z" fill="#E0E0DE"/>
<path d="M13.2812 18.75H22.6562V25H13.2812V18.75Z" fill="#F98500"/>
<path d="M33.5938 25.7812L30.4688 30.4688L27.3438 28.9062V47.6562H8.59375V28.9062L5.46875 31.25L2.34375 25.7812L8.59375 19.5312L13.2812 18.75V19.5312C13.2812 20.7745 13.7751 21.9667 14.6542 22.8458C15.5333 23.7249 16.7255 24.2188 17.9688 24.2188C19.212 24.2188 20.4042 23.7249 21.2833 22.8458C22.1624 21.9667 22.6562 20.7745 22.6562 19.5312V18.75L27.3438 19.5312L33.5938 25.7812Z" fill="#FFB531"/>
<path d="M33.5938 25.7813L30.4688 30.4688L27.3438 28.9063V47.6562H8.59375V40.8008C16.9277 37.5654 25.001 31.9844 30.8525 23.04L33.5938 25.7813Z" fill="#FCAC1F"/>
<path d="M16.4062 20.3125H19.5312V21.875H16.4062V20.3125Z" fill="#FFB531"/>
<path d="M47.6562 1.5625H16.4062C16.199 1.5625 16.0003 1.64481 15.8538 1.79132C15.7073 1.93784 15.625 2.13655 15.625 2.34375V16.4062H17.1875V12.5H46.875V43.75H29.6875V45.3125H47.6562C47.8634 45.3125 48.0622 45.2302 48.2087 45.0837C48.3552 44.9372 48.4375 44.7384 48.4375 44.5312V2.34375C48.4375 2.13655 48.3552 1.93784 48.2087 1.79132C48.0622 1.64481 47.8634 1.5625 47.6562 1.5625ZM17.1875 10.9375V3.125H46.875V10.9375H17.1875Z" fill="black"/>
<path d="M25.7812 4.6875H19.5312C19.324 4.6875 19.1253 4.76981 18.9788 4.91632C18.8323 5.06284 18.75 5.26155 18.75 5.46875V8.59375C18.75 8.80095 18.8323 8.99966 18.9788 9.14618C19.1253 9.29269 19.324 9.375 19.5312 9.375H25.7812C25.9885 9.375 26.1872 9.29269 26.3337 9.14618C26.4802 8.99966 26.5625 8.80095 26.5625 8.59375V5.46875C26.5625 5.26155 26.4802 5.06284 26.3337 4.91632C26.1872 4.76981 25.9885 4.6875 25.7812 4.6875ZM25 7.8125H20.3125V6.25H25V7.8125Z" fill="black"/>
<path d="M42.9688 4.6875C42.5052 4.6875 42.0521 4.82496 41.6666 5.08249C41.2812 5.34003 40.9808 5.70607 40.8034 6.13433C40.626 6.5626 40.5796 7.03385 40.67 7.48849C40.7605 7.94313 40.9837 8.36075 41.3115 8.68853C41.6393 9.01631 42.0569 9.23953 42.5115 9.32996C42.9662 9.4204 43.4374 9.37398 43.8657 9.19659C44.2939 9.0192 44.66 8.71879 44.9175 8.33337C45.175 7.94794 45.3125 7.4948 45.3125 7.03125C45.3118 6.40987 45.0646 5.81415 44.6252 5.37477C44.1859 4.93539 43.5901 4.68822 42.9688 4.6875ZM42.9688 7.8125C42.8142 7.8125 42.6632 7.76668 42.5347 7.68083C42.4062 7.59499 42.3061 7.47297 42.247 7.33022C42.1878 7.18747 42.1724 7.03038 42.2025 6.87883C42.2327 6.72729 42.3071 6.58808 42.4163 6.47882C42.5256 6.36956 42.6648 6.29516 42.8163 6.26501C42.9679 6.23487 43.125 6.25034 43.2677 6.30947C43.4105 6.3686 43.5325 6.46873 43.6183 6.59721C43.7042 6.72569 43.75 6.87673 43.75 7.03125C43.7498 7.23838 43.6674 7.43696 43.5209 7.58342C43.3745 7.72988 43.1759 7.81227 42.9688 7.8125Z" fill="black"/>
<path d="M28.125 6.25H29.6875V7.8125H28.125V6.25Z" fill="black"/>
<path d="M31.25 6.25H32.8125V7.8125H31.25V6.25Z" fill="black"/>
<path d="M34.375 6.25H35.9375V7.8125H34.375V6.25Z" fill="black"/>
<path d="M37.5 6.25H39.0625V7.8125H37.5V6.25Z" fill="black"/>
<path d="M32.0311 39.0624C31.2936 39.0625 30.5577 38.9936 29.833 38.8566L29.5418 40.3915C31.4624 40.758 33.4402 40.6959 35.334 40.2097C37.2278 39.7234 38.9909 38.825 40.4974 37.5786C42.0039 36.3322 43.2166 34.7686 44.0489 32.9994C44.8813 31.2301 45.3127 29.2989 45.3124 27.3437C45.3196 24.5256 44.4231 21.7794 42.7545 19.5084C40.7219 16.7268 37.688 14.8437 34.2933 14.2567C30.8985 13.6696 27.4085 14.4246 24.5598 16.3621L25.4399 17.6533C27.8431 16.0189 30.768 15.3361 33.6464 15.7372C36.5249 16.1384 39.1515 17.595 41.0163 19.8242L39.7643 20.763C38.5291 19.3126 36.9113 18.2384 35.0952 17.6629C33.2791 17.0874 31.3378 17.0336 29.4927 17.5078L29.8821 19.0209C31.4278 18.6239 33.0533 18.6644 34.5773 19.1379C36.1013 19.6113 37.4637 20.4991 38.5123 21.702L37.0311 22.8124C36.9341 22.8852 36.8554 22.9796 36.8011 23.088C36.7469 23.1965 36.7186 23.3161 36.7186 23.4374V29.6874C36.7186 29.8087 36.7469 29.9283 36.8011 30.0368C36.8554 30.1453 36.9341 30.2397 37.0311 30.3124L39.2635 31.9867C38.2847 33.5079 36.8515 34.6822 35.1675 35.3428C33.4835 36.0035 31.6342 36.1168 29.8821 35.6668L29.4927 37.1805C31.5443 37.7076 33.7092 37.581 35.6854 36.8184C37.6616 36.0557 39.3504 34.6952 40.516 32.9265L41.7673 33.865C40.6925 35.4607 39.243 36.7688 37.5458 37.6749C35.8485 38.581 33.9551 39.0574 32.0311 39.0624ZM38.2811 23.8281L41.9378 21.0858C43.0069 22.7776 43.6249 24.7151 43.7328 26.7135C43.8408 28.7119 43.4351 30.7046 42.5545 32.5018L38.2811 29.2968V23.8281Z" fill="black"/>
<path d="M31.1187 30.9021L34.2437 26.2146C34.3439 26.0644 34.3889 25.884 34.3711 25.7043C34.3533 25.5245 34.2738 25.3565 34.1461 25.2288L27.8961 18.9788C27.7809 18.8637 27.6327 18.7874 27.4721 18.7605L22.7846 17.9793C22.7779 17.9782 22.7713 17.978 22.765 17.9771C22.7486 17.9748 22.7321 17.9729 22.7154 17.9718C22.7041 17.9709 22.6928 17.9703 22.6813 17.97C22.673 17.97 22.6649 17.9688 22.6565 17.9688H13.2812C13.2728 17.9688 13.2647 17.9697 13.2564 17.97C13.245 17.97 13.2337 17.9709 13.2223 17.9718C13.2056 17.9729 13.1891 17.9748 13.1727 17.9771C13.1661 17.978 13.1595 17.9782 13.1532 17.9793L8.46571 18.7605C8.30509 18.7874 8.15685 18.8637 8.04168 18.9788L1.79169 25.2288C1.6705 25.35 1.59253 25.5077 1.56978 25.6775C1.54703 25.8474 1.58077 26.02 1.66581 26.1688L4.79081 31.6376C4.84577 31.7337 4.92054 31.8171 5.01016 31.8821C5.09978 31.9471 5.20219 31.9924 5.31062 32.0148C5.41905 32.0373 5.53101 32.0364 5.63909 32.0123C5.74716 31.9882 5.84887 31.9414 5.93749 31.875L7.81249 30.4688V47.6562C7.81249 47.8635 7.8948 48.0622 8.04131 48.2087C8.18782 48.3552 8.38653 48.4375 8.59374 48.4375H27.3437C27.5509 48.4375 27.7496 48.3552 27.8962 48.2087C28.0427 48.0622 28.125 47.8635 28.125 47.6562V30.1703L30.1193 31.1675C30.2896 31.2526 30.4852 31.2727 30.6692 31.2238C30.8532 31.175 31.0131 31.0606 31.1187 30.9021ZM21.875 19.5312C21.875 20.5673 21.4634 21.5608 20.7309 22.2934C19.9983 23.0259 19.0047 23.4375 17.9687 23.4375C16.9327 23.4375 15.9392 23.0259 15.2066 22.2934C14.474 21.5608 14.0625 20.5673 14.0625 19.5312H21.875ZM9.37499 46.875V25H7.81249V28.5156L5.70799 30.094L3.31815 25.9117L8.96913 20.2607L12.5018 19.6719C12.539 21.0971 13.1312 22.4515 14.1524 23.4465C15.1736 24.4414 16.543 24.9982 17.9687 24.9982C19.3945 24.9982 20.7638 24.4414 21.785 23.4465C22.8062 22.4515 23.3985 21.0971 23.4356 19.6719L26.9683 20.2607L32.5885 25.8809L30.2013 29.4616L28.125 28.4234V25H26.5625V43.75H10.9375V45.3125H26.5625V46.875H9.37499Z" fill="black"/>
<path d="M16.4062 20.3125H19.5312V21.875H16.4062V20.3125Z" fill="black"/>
</svg>
